<svg width="1080" height="1080" viewBox="0 0 1080 1080" fill="none" xmlns="http://www.w3.org/2000/svg">
<defs>
<clipPath id="round-clip"><circle cx="546" cy="537" r="499"/></clipPath>
</defs>
<g clip-path="url(#round-clip)"><g clip-path="url(#clip0_3_3263)">
<path d="M0 0H1080V1080H0V0Z" fill="#FEFEFE"/>
<path d="M191.222 193.57C194.17 189.75 200.886 183.289 204.409 179.886C215.078 169.462 226.273 159.592 237.952 150.313C312.012 91.1882 391.003 56.499 485.159 44.3238C612.742 27.9724 741.619 62.689 843.729 140.914C868.003 159.73 890.626 180.591 911.34 203.267C913.818 205.987 921.533 214.415 923.374 217.288C933.773 228.097 953.633 256.3 962.133 269.402C1018.15 355.771 1043.49 449.498 1041.4 552.129C1038.46 682.594 983.617 806.498 889.017 896.389C865.324 918.96 839.463 939.136 811.804 956.628C736.309 1004.78 659.406 1028.39 570.254 1033.59L569.542 1034.52C565.444 1036.11 535.148 1035.35 528.488 1034.97C526.341 1034.85 521.452 1033.65 519.117 1033.17C427.472 1028.28 339.063 997.65 264.037 944.789C156.361 870.718 82.7539 756.686 59.5951 628.061C41.3847 530.887 52.8799 430.483 92.5826 339.941C100.056 322.819 113.953 294.539 124.702 279.056C125.591 276.958 131.714 267.677 133.129 265.557C145.707 246.824 159.417 228.878 174.184 211.819C178.93 206.355 185.887 198.349 191.222 193.57Z" fill="white"/>
<path d="M124.702 279.056C125.591 276.958 131.714 267.677 133.129 265.557C145.707 246.824 159.417 228.878 174.184 211.819C178.93 206.355 185.887 198.349 191.222 193.57C191.143 194.128 191.064 194.686 190.985 195.245C184.279 203.133 167.225 219.988 162.168 228.145C165.657 226.727 167.258 222.958 170.289 222.568C176.514 221.767 181.911 218.199 188.045 216.712C192.301 215.68 192.725 219.388 196.533 222.159C203.058 223.042 202.097 225.307 206.003 230.232C207.032 230.492 207.911 230.714 208.638 230.897C209.952 232.101 209.884 231.992 210.459 233.678L209.966 234.624C214.412 233.697 217.723 224.016 221.96 224.086C50.1436 401.858 53.2449 684.751 228.918 858.711C404.59 1032.67 687.498 1033 863.578 859.46C1039.66 685.911 1043.43 403.025 872.031 224.85C878.65 227.38 888.079 245.586 893.637 242.968L893.157 243.416L893.521 243.254C893.268 242.494 892.978 241.807 892.629 241.087C894.212 238.96 894.048 238.964 893.6 236.53C894.85 233.793 894.227 236.855 895.198 235.744C898.272 232.211 902.681 228.166 906.799 226.048C910.459 224.162 913.175 224.548 916.471 226.385C916.94 226.646 919.429 226.519 920.758 227.081C923.801 228.371 928.705 228.979 931.495 230.605C931.31 230.498 932.37 231.368 933.061 231.752C933.314 228.866 923.89 221.882 923.374 217.288C933.773 228.097 953.633 256.3 962.133 269.403C1018.15 355.771 1043.49 449.498 1041.4 552.129C1038.46 682.594 983.617 806.498 889.017 896.389C865.324 918.96 839.463 939.136 811.804 956.628C736.309 1004.78 659.406 1028.39 570.254 1033.59L569.542 1034.52C565.444 1036.11 535.148 1035.35 528.488 1034.97C526.341 1034.85 521.452 1033.65 519.117 1033.17C427.472 1028.28 339.063 997.65 264.037 944.789C156.361 870.718 82.7539 756.686 59.5951 628.061C41.3847 530.887 52.8799 430.483 92.5826 339.941C100.056 322.819 113.953 294.539 124.702 279.056Z" fill="url(#paint0_linear_3_3263)"/>
<path d="M124.702 279.056C125.591 276.958 131.714 267.677 133.129 265.557C145.707 246.824 159.417 228.878 174.184 211.819C178.93 206.355 185.887 198.349 191.222 193.57C191.143 194.128 191.064 194.686 190.985 195.245C184.279 203.133 167.225 219.988 162.168 228.145C156.059 233.63 154.145 239.947 151.608 247.173C151.076 248.689 141.863 258.034 140.084 259.14L139.42 258.166C134.566 265.194 129.887 272.342 125.388 279.602L124.702 279.056Z" fill="#0586CA"/>
<path d="M519.117 1033.17C529.854 1033.39 540.596 1033.54 551.333 1033.6C556.912 1033.61 564.885 1033.31 570.254 1033.59L569.542 1034.52C565.444 1036.11 535.148 1035.35 528.488 1034.97C526.341 1034.85 521.452 1033.65 519.117 1033.17Z" fill="#D2D2DD"/>
<path d="M191.222 193.57C194.17 189.75 200.886 183.289 204.409 179.886C215.078 169.462 226.273 159.592 237.952 150.313C312.012 91.1882 391.003 56.499 485.159 44.3238C612.742 27.9724 741.619 62.689 843.729 140.914C868.003 159.73 890.626 180.591 911.34 203.267C913.818 205.987 921.533 214.415 923.374 217.288C923.89 221.882 933.314 228.866 933.061 231.752C932.37 231.368 931.31 230.498 931.495 230.605C928.705 228.979 923.801 228.371 920.758 227.081C919.429 226.519 916.94 226.646 916.471 226.385C913.175 224.548 910.459 224.162 906.799 226.048C902.681 228.166 898.272 232.211 895.198 235.744C894.227 236.855 894.85 233.793 893.6 236.53C894.048 238.964 894.211 238.96 892.629 241.087C892.977 241.807 893.268 242.494 893.521 243.254L893.157 243.416L893.637 242.968C888.078 245.586 878.65 227.38 872.031 224.85C787.034 136.493 669.758 86.4991 547.156 86.3551C424.554 86.2112 307.165 135.93 221.96 224.086C217.723 224.016 214.412 233.697 209.966 234.624L210.459 233.678C209.884 231.992 209.952 232.101 208.638 230.897C207.911 230.714 207.032 230.492 206.003 230.232C202.097 225.307 203.058 223.042 196.533 222.159C192.725 219.388 192.301 215.68 188.045 216.712C181.911 218.199 176.514 221.767 170.289 222.568C167.258 222.958 165.657 226.727 162.168 228.145C167.225 219.988 184.279 203.133 190.985 195.245C191.064 194.686 191.143 194.128 191.222 193.57Z" fill="#0391D8"/>
<path d="M340.294 747.863C355.929 762.739 371.776 776.123 389.999 787.857C428.495 812.637 479.883 830.123 525.501 832.987C593.272 837.448 660.519 818.453 715.943 779.193C728.009 770.613 739.141 761.326 749.693 751.017C752.994 747.821 758.109 747.636 762.455 747.367C798.725 745.142 835.592 745.622 871.784 748.417C867.101 755.747 862.534 762.091 858.057 769.716C842.811 766.183 827.55 762.724 812.268 759.349C795.93 778.702 781.824 792.192 762.94 808.734C766.689 823.046 770.908 839.004 774.236 853.295C752.467 868.308 724.101 883.559 700.618 895.335C691.959 887.962 677.062 871.641 668.535 862.961C659.422 865.74 650.832 868.989 641.461 871.641C627.708 875.528 614.946 878.191 600.95 880.891C596.811 895.799 593.752 910.311 588.98 925.225C581.882 925.926 572.052 925.979 564.806 926.126C545.142 926.522 525.468 926.29 505.819 925.43C501.369 911.287 497.424 895.308 493.579 880.859C468.397 876.319 450.272 871.499 426.555 862.545C415.401 873.439 404.98 885.389 393.68 896.389C374.975 886.111 355.728 877.22 337.896 865.303C331.797 861.226 325.339 857.63 319.502 853.153C323.409 839.668 326.806 823.474 330.337 809.515C322.165 800.829 312.708 792.519 304.232 784.044C296.092 775.902 288.307 767.512 280.45 759.101C265.369 762.281 249.753 766.41 234.486 769.785C230.372 763.441 225.496 755.42 221.77 748.928C238.089 747.826 254.425 746.993 270.772 746.429C293.955 745.87 317.153 746.35 340.294 747.863Z" fill="url(#paint1_linear_3_3263)"/>
<path d="M797.423 308.484C798.298 321.751 797.903 339.586 797.987 353.25L798.377 436.066L798.319 661.748C714.915 670.992 646.497 699.659 580.558 751.792C573.107 757.767 565.956 764.1 559.127 770.781C555.778 773.993 550.637 779.361 547.209 782.161C539.151 774.362 530.893 766.225 522.366 758.979C472.195 716.138 412.583 685.8 348.419 670.46C333.822 667.016 310.619 662.618 295.687 661.653L295.475 443.271L295.756 365.931C295.794 351.836 295.409 331.865 296.257 318.269C296.973 326.217 295.566 353.958 296.767 358.396C297.161 353.325 296.951 345.39 296.857 340.138C299.12 336.602 299.491 336.073 304.117 333.872C308.952 331.573 315.921 331.517 321.378 332.35C321.817 332.008 322.257 331.665 322.696 331.323L322.839 334.362C323.328 332.385 323.398 330.401 323.797 328.503C324.351 339.673 323.954 355.102 323.965 366.671L323.949 440.345L324.083 636.804C338.847 638.582 355.89 642.842 370.24 646.703C426.994 661.98 487.859 692.455 532.543 731.046C533.572 684.476 531.668 636.588 532.913 590.029C544.14 590.773 550.368 590.815 561.51 589.618L561.737 730.324C566.235 727.297 571.788 722.651 576.207 719.255C583.269 713.849 590.52 708.702 597.95 703.814C649.867 669.473 708.513 646.597 769.969 636.71C769.199 586.106 769.563 534.426 769.532 483.748L769.5 327.684C770.106 329.865 770.212 330.324 770.222 332.596L770.217 333.106L770.665 331.447L772.327 332.618C775.586 333.05 778.718 328.748 784.213 328.037C790.446 327.23 793.204 330.656 796.468 329.71C798.103 325.373 796.595 314.121 797.423 308.484Z" fill="url(#paint2_linear_3_3263)"/>
<path d="M542.442 250.44C545.163 248.067 542.326 249.319 544.546 247.37C546.46 248.239 550.278 249.504 551.749 250.334L552.129 249.803C553.922 253.605 556.211 264.931 557.671 269.633C564.833 292.685 570.633 316.111 577.083 339.383L608.033 450.843C620.035 494.591 632.512 540.659 645.822 583.986C630.645 572.611 615.046 561.869 599.727 550.684C585.051 565.777 570.212 574.066 548.654 574.293C529.411 574.657 510.855 567.153 497.279 553.511C496.413 552.646 495.557 551.77 494.712 550.89C491.984 552.466 489.483 554.17 486.941 556.031C474.387 565.218 461.21 573.94 449.197 583.838L517.641 340.178L536.34 271.216C537.289 267.802 541.229 252.535 542.442 250.44Z" fill="url(#paint3_linear_3_3263)"/>
<path d="M546.718 470.634C564.548 470.296 579.292 484.441 579.698 502.27C580.099 520.098 566.009 534.895 548.179 535.365C530.26 535.834 515.372 521.652 514.968 503.732C514.563 485.812 528.794 470.974 546.718 470.634Z" fill="#FEFEFE"/>
<path d="M518.864 148.433C538.866 147.462 569.041 147.955 588.874 148.973C591.896 161.046 597.502 181.393 601.436 193.069C617.435 195.52 652.894 204.959 667.77 211.433C677.995 200.883 689.476 189.666 700.059 179.463C720.52 188.784 755.246 208.917 774.051 222.336C772.163 233.876 766.352 256.637 763.341 268.083C766.584 271.332 772.084 275.568 775.781 278.612C769.263 278.948 762.639 278.854 756.069 279.269C737.865 280.347 719.777 282.856 701.968 286.771C666.046 263.61 625.994 250.737 583.944 244.56C593.81 221.287 592.655 199.319 569.447 185.014C567.949 184.252 566.436 183.528 564.906 182.843C554.312 178.235 542.32 178.046 531.589 182.317C520.756 186.639 512.149 195.188 507.753 205.993C501.979 220.016 504.826 231.695 510.357 244.935C498.383 245.826 486.444 248.78 474.802 251.632C446.617 258.536 417.242 270.208 393.254 286.684C376.003 282.32 357.036 280.906 339.363 279.514C332.002 278.934 324.819 279.258 317.411 278.191C321.827 274.559 326.007 271.479 329.725 267.137C326.443 252.568 323.078 237.383 319.151 223.023C323.211 219.616 331.155 214.752 335.801 211.814C346.317 205.039 357.079 198.655 368.065 192.675C376.527 188.06 385.102 183.952 393.459 179.104C395.507 180.775 397.381 182.518 399.217 184.419C407.954 193.47 417.431 201.991 425.987 211.196C447.554 203.206 469.794 197.166 492.44 193.151C494.757 186.823 502.989 152.667 505.717 149.513C509.235 148.213 514.978 148.487 518.864 148.433Z" fill="#0586CA"/>
<path d="M231.494 348.208C246.336 346.475 265.229 342.323 279.888 342.086L279.505 369.998C272.923 370.405 266.878 371.133 260.335 371.915C259.187 404.638 260.374 441.967 260.333 475.129L260.542 701.431C278.97 701.209 297.104 701.03 315.52 702.069C348.23 704.241 380.75 708.676 412.845 715.352C419.543 716.713 435.342 719.002 440.735 721.707C462.73 732.728 483.334 748.132 502.916 762.929C503.343 764.949 503.605 764.654 503.003 766.289L502.015 767.106C440.777 747.905 375.052 733.308 310.812 730.234C283.901 728.947 258.359 730.714 231.684 732.043L231.494 348.208Z" fill="url(#paint4_linear_3_3263)"/>
<path d="M813.734 341.999C827.112 342.43 848.317 345.756 862.102 347.684L862.138 731.426C837.005 729.986 804.98 728.974 779.546 730.229C733.63 732.496 685.088 741.804 640.501 752.525C630.134 755.014 617.704 759.048 607.263 762.054C599.163 764.379 591.121 766.895 583.142 769.6C600.391 754.091 632.211 732.444 653.368 721.949C658.41 719.45 678.723 715.716 685.352 714.403C715.753 708.107 746.571 704.03 777.563 702.206C796.679 701.172 814.155 701.32 833.288 701.467L833.667 371.772C827.228 370.99 820.278 370.464 813.781 369.869C813.533 360.753 813.707 351.152 813.734 341.999Z" fill="url(#paint5_linear_3_3263)"/>
<path d="M547.188 804.769C551.696 800.038 558.035 792.814 564.105 790.673C579.698 785.162 595.139 785.526 612.151 781.413C629.912 777.12 641.471 769.98 656.285 765.007C671.156 760.018 703.951 754.36 719.376 752.831C717.383 754.708 715.131 756.469 713 758.204C691.211 774.652 669.394 787.514 643.924 797.154C557.392 829.902 457.341 816.555 383.501 760.403C381.568 758.932 375.948 755.198 375.2 753.258C391.437 754.755 423.227 760.556 438.512 765.729C454.181 771.662 468.791 777.827 485.1 781.977C500.505 785.9 516.906 785.842 531.8 791.047C535.76 792.434 543.923 801.431 547.188 804.769Z" fill="#2D2C7D"/>
<path d="M214.879 436.988C216.215 438.207 215.686 449.242 215.683 451.682L215.666 485.185L215.77 589.554C215.797 606.081 215.242 626.927 216.189 643.127C212.12 634.347 205.697 607.057 203.677 597.074L203.501 595.63C203.274 595.313 203.046 594.991 202.819 594.675C190.185 591.506 171.188 585.884 159.32 582.209C158.025 553.062 157.624 521.805 160.136 492.727C170.945 488.953 191.596 483.981 203.241 480.737C206.116 468.306 210.962 448.938 214.879 436.988Z" fill="url(#paint6_linear_3_3263)"/>
<path d="M878.154 436.519C880.353 439.479 889.191 474.714 890.662 480.177C904.637 485.287 919.988 487.817 932.971 492.365C935.877 518.498 935.202 556.089 933.778 582.288C919.455 586.77 904.874 590.256 890.446 594.712C889.529 601.631 881.165 633.751 877.906 640.195C878.354 625.387 877.975 608.839 877.98 593.873L878.048 490.394C878.064 472.921 877.685 453.852 878.154 436.519Z" fill="url(#paint7_linear_3_3263)"/>
<path d="M296.425 294.342C371.056 294.283 434.195 305.647 501.041 339.671C497.958 349.051 494.912 358.213 492.662 367.838C481.749 362.526 471.124 355.98 459.742 351.269C418.464 334.185 368.659 323.495 323.992 323.163L323.797 328.503C323.398 330.401 323.328 332.385 322.839 334.362L322.696 331.323C322.257 331.665 321.817 332.008 321.377 332.35C315.921 331.517 308.952 331.573 304.117 333.872C299.491 336.073 299.12 336.602 296.857 340.138C296.951 345.39 297.161 353.325 296.767 358.396C295.566 353.958 296.973 326.217 296.257 318.269C296.034 310.649 296.324 302.035 296.425 294.342Z" fill="#0E77BC"/>
<path d="M593.689 340.134C601.483 335.379 614.609 329.533 622.988 325.995C680.326 301.789 736.035 294.494 797.486 294.221C797.544 298.927 797.681 303.798 797.423 308.484C796.595 314.121 798.103 325.373 796.468 329.71C793.204 330.656 790.446 327.23 784.213 328.037C778.718 328.748 775.586 333.05 772.327 332.618L770.665 331.447L770.217 333.106L770.222 332.596C770.212 330.324 770.106 329.865 769.5 327.684C769.5 320.524 764.126 323.236 758.658 323.577C706.799 326.803 647.23 340.817 602.438 367.722C599.49 359.839 596.347 348.458 593.689 340.134Z" fill="#0E77BC"/>
<path d="M542.442 250.44C537.606 248.173 534.436 247.712 530.023 244.113C515.237 232.059 517.462 207.031 535.032 198.116C541.461 194.775 548.97 194.191 555.841 196.496C577.663 203.853 581.043 233.113 561.363 245.177C558.367 247.01 555.319 248.346 552.129 249.803L551.749 250.334C550.278 249.504 546.46 248.239 544.546 247.37C542.326 249.319 545.163 248.067 542.442 250.44Z" fill="#0586CA"/>
<path d="M517.074 262.833C518.287 262.673 521.279 262.687 522.635 262.653C519.978 271.473 517.473 280.466 514.926 289.329C495.097 291.45 475.676 296.41 457.257 304.056C450.018 301.186 442.673 298.586 435.239 296.265C430.694 295.269 424.548 293.477 420.293 291.751C442.09 278.028 491.47 265.058 517.074 262.833Z" fill="#0C7CBF"/>
<path d="M572.258 262.558C607.4 264.902 643.433 276.458 674.863 292.085C671.868 293.308 668.577 294.06 665.439 294.883C654.993 297.615 648.063 299.981 637.98 303.762C632.712 302.391 625.14 299.31 619.371 297.571C606.303 293.666 592.929 290.858 579.393 289.175C577.236 280.245 574.852 271.37 572.258 262.558Z" fill="#0C7CBF"/>
<path d="M215.935 669.057C216.438 671.298 216.207 687.029 216.204 690.588L216.203 740.48C212.709 735.919 209.45 729.87 206.557 724.808C200.705 714.234 195.736 704.605 191.295 693.341C198.151 686.412 208.895 674.937 215.935 669.057Z" fill="#2D3D87"/>
<path d="M234.908 306.911C250.146 309.97 264.959 314.766 280.543 317.526L280.478 325.464C273.632 326.409 266.464 327.145 259.578 327.943C246.696 329.196 230.994 332.463 218.388 332.901C222.378 326.163 230.302 312.923 234.908 306.911Z" fill="#0E77BC"/>
<path d="M857.113 306.987C858.938 307.454 872.126 329.185 874.452 332.738C861.395 331.601 848.185 328.951 835.26 327.859C827.898 326.954 820.526 326.158 813.143 325.472C813.08 322.569 813.18 319.45 813.222 316.53C827.292 314.113 843.291 310.456 857.113 306.987Z" fill="#0E77BC"/>
<path d="M877.658 669.669C881.935 672.917 898.409 689.702 902.322 693.963C897.376 703.941 892.387 714.477 886.997 724.164C883.912 729.448 881.033 734.353 877.69 739.484C878.381 717.372 877.758 692.002 877.658 669.669Z" fill="#2D3D87"/>
<path d="M214.537 338.854C214.796 339.115 215.053 339.376 215.311 339.638C215.801 359.996 215.566 387.404 216.095 407.001C212.448 403.75 207.88 398.623 204.436 394.975C200.646 391.021 194.361 384.771 191.615 380.377C197.279 369.297 207.708 348.719 214.537 338.854Z" fill="#0E77BC"/>
<path d="M878.681 339.891C882.183 342.565 898.594 375.188 901.462 381.226C897.381 385.537 893.273 389.821 889.144 394.079C885.03 398.133 881.629 401.84 877.769 406.112C878.249 385.906 876.999 359.194 878.681 339.891Z" fill="#0E77BC"/>
<path d="M502.916 762.929C506.279 765.687 508.902 767.602 512.491 770.075C509.052 769.052 505.492 767.929 502.015 767.106L503.003 766.288C503.605 764.654 503.343 764.949 502.916 762.929Z" fill="#3C3C9B"/>
<path d="M546.5 37C820.157 37 1042 260.41 1042 536C1042 811.59 820.157 1035 546.5 1035C272.843 1035 51 811.59 51 536C51 260.41 272.843 37 546.5 37ZM546 85C295.815 85 93 287.367 93 537C93 786.633 295.815 989 546 989C796.185 989 999 786.633 999 537C999 287.367 796.185 85 546 85Z" fill="url(#paint8_linear_3_3263)"/>
</g></g>
<defs>
<linearGradient id="paint0_linear_3_3263" x1="543.275" y1="1032.15" x2="547.9" y2="218.773" gradientUnits="userSpaceOnUse">
<stop stop-color="#341A6F"/>
<stop offset="1" stop-color="#1581BE"/>
</linearGradient>
<linearGradient id="paint1_linear_3_3263" x1="547" y1="954.5" x2="547" y2="611" gradientUnits="userSpaceOnUse">
<stop offset="0.249783" stop-color="#961F21"/>
<stop offset="0.896864" stop-color="#5250E3"/>
</linearGradient>
<linearGradient id="paint2_linear_3_3263" x1="544.815" y1="779.926" x2="547.815" y2="325.894" gradientUnits="userSpaceOnUse">
<stop stop-color="#312D7B"/>
<stop offset="1" stop-color="#1479B8"/>
</linearGradient>
<linearGradient id="paint3_linear_3_3263" x1="547.383" y1="581.766" x2="547.019" y2="246.794" gradientUnits="userSpaceOnUse">
<stop stop-color="#23539A"/>
<stop offset="1" stop-color="#0985C7"/>
</linearGradient>
<linearGradient id="paint4_linear_3_3263" x1="340.922" y1="746.139" x2="395.578" y2="359.403" gradientUnits="userSpaceOnUse">
<stop stop-color="#2E327E"/>
<stop offset="1" stop-color="#1473B7"/>
</linearGradient>
<linearGradient id="paint5_linear_3_3263" x1="735.244" y1="758.937" x2="710.791" y2="349.006" gradientUnits="userSpaceOnUse">
<stop stop-color="#2E327E"/>
<stop offset="1" stop-color="#1372B8"/>
</linearGradient>
<linearGradient id="paint6_linear_3_3263" x1="174.721" y1="628.414" x2="212.983" y2="442.103" gradientUnits="userSpaceOnUse">
<stop stop-color="#29488D"/>
<stop offset="1" stop-color="#1C6CAF"/>
</linearGradient>
<linearGradient id="paint7_linear_3_3263" x1="914.451" y1="630.482" x2="887.504" y2="438.622" gradientUnits="userSpaceOnUse">
<stop stop-color="#29488D"/>
<stop offset="1" stop-color="#1E68AE"/>
</linearGradient>
<linearGradient id="paint8_linear_3_3263" x1="546.5" y1="37" x2="546.5" y2="1035" gradientUnits="userSpaceOnUse">
<stop stop-color="#0586CA"/>
<stop offset="1" stop-color="#9B1C1C"/>
</linearGradient>
<clipPath id="clip0_3_3263">
<rect width="1080" height="1080" fill="white"/>
</clipPath>
</defs>
</svg>
